<?xml version="1.0" encoding="utf-8"?>
<!-- Generator: Adobe Illustrator 27.2.0, SVG Export Plug-In . SVG Version: 6.00 Build 0)  -->
<svg version="1.1" id="Camada_1" xmlns="http://www.w3.org/2000/svg" xmlns:xlink="http://www.w3.org/1999/xlink" x="0px" y="0px"
	 viewBox="0 0 634 800" style="enable-background:new 0 0 634 800;" xml:space="preserve">
<style type="text/css">
	.st0{fill:#9500FF;}
</style>
<path class="st0" d="M612.54,142.98H503.43C503.43,73.41,447.03,17,377.45,17c-69.58,0-125.98,56.41-125.98,125.98H22.46
	c-5.42,0-9.49,4.92-8.49,10.24l118.07,623.75c0.77,4.08,4.33,7.03,8.49,7.03h353.95c4.15,0,7.71-2.95,8.48-7.03l118.07-623.75
	C622.04,147.91,617.96,142.98,612.54,142.98z M137.66,457.3l37.04-172.58c1.15-5.36,6.43-8.78,11.8-7.63l172.58,37.04
	c5.37,1.15,8.78,6.43,7.63,11.79l-37.04,172.59c-1.15,5.36-6.43,8.78-11.8,7.63L145.29,469.1
	C139.92,467.95,136.51,462.67,137.66,457.3z M472.29,442.14l-49.58,252.7c-0.72,3.68-3.95,6.34-7.7,6.34H226.28
	c-6.88,0-10.43-8.23-5.71-13.23l238.31-252.7C464.28,429.52,473.81,434.42,472.29,442.14z M377.45,265.43
	c-68.39,0-123.91-54.52-125.81-122.44h251.61C501.36,210.91,445.83,265.43,377.45,265.43z"/>
</svg>
