<?xml version="1.0" encoding="utf-8"?>
<!-- Generator: Adobe Illustrator 27.2.0, SVG Export Plug-In . SVG Version: 6.00 Build 0)  -->
<svg version="1.1" id="Camada_1" xmlns="http://www.w3.org/2000/svg" xmlns:xlink="http://www.w3.org/1999/xlink" x="0px" y="0px"
	 viewBox="0 0 1335.47 496.74" style="enable-background:new 0 0 1335.47 496.74;" xml:space="preserve">
<style type="text/css">
	.st0{fill:#9500FF;}
</style>
<g>
	<g>
		<path class="st0" d="M514.33,94.39h-38.77c0-24.72-20.04-44.77-44.77-44.77c-24.72,0-44.77,20.04-44.77,44.77h-81.37
			c-1.92,0-3.37,1.75-3.02,3.64l41.95,221.63c0.27,1.45,1.54,2.5,3.02,2.5h125.77c1.47,0,2.74-1.05,3.01-2.5l41.95-221.63
			C517.71,96.14,516.26,94.39,514.33,94.39z M345.59,206.08l13.16-61.32c0.41-1.91,2.29-3.12,4.19-2.71l61.32,13.16
			c1.91,0.41,3.12,2.29,2.71,4.19l-13.16,61.32c-0.41,1.91-2.29,3.12-4.19,2.71l-61.32-13.16
			C346.4,209.86,345.19,207.98,345.59,206.08z M464.5,200.69l-17.62,89.79c-0.26,1.31-1.4,2.25-2.74,2.25h-67.06
			c-2.45,0-3.71-2.92-2.03-4.7l84.68-89.79C461.65,196.2,465.04,197.94,464.5,200.69z M430.8,137.9c-24.3,0-44.03-19.37-44.7-43.51
			h89.4C474.83,118.53,455.1,137.9,430.8,137.9z"/>
		<path class="st0" d="M181.43,94.39H71.95c-2.43,0-4.41,1.97-4.41,4.41v218.96c0,2.43,1.97,4.41,4.41,4.41h109.48
			c62.9,0,113.88-50.99,113.88-113.88v0C295.32,145.38,244.33,94.39,181.43,94.39z"/>
		<path class="st0" d="M749.03,96.33c-0.21-1.12-1.19-1.94-2.33-1.94h-65.09h-10.56c-0.63,0-1.23,0.25-1.68,0.69L653.46,111
			c-0.93,0.93-2.43,0.93-3.35,0L634.2,95.08c-0.44-0.44-1.05-0.69-1.68-0.69h-10.56h-65.77c-1.14,0-2.12,0.82-2.33,1.94
			l-41.13,223.03c-0.27,1.46,0.85,2.8,2.33,2.8h111.01c1.31,0,2.37-1.06,2.37-2.37V228.9c0-2.11,2.55-3.17,4.05-1.68l17.62,17.62
			c0.93,0.93,2.43,0.93,3.35,0l16.94-16.94c1.49-1.49,4.05-0.44,4.05,1.68v90.21c0,1.31,1.06,2.37,2.37,2.37h111.01
			c1.48,0,2.6-1.34,2.33-2.8L749.03,96.33z"/>
		<path class="st0" d="M941.53,94.39h-99.1h-53.65c-1.62,0-2.84,1.47-2.54,3.06l41.05,222.59c0.23,1.23,1.3,2.12,2.55,2.12h84.73
			c1.61,0,2.83-1.46,2.55-3.04l-9.08-50.86c-0.28-1.59,0.94-3.04,2.55-3.04h30.96c47.17,0,85.41-38.24,85.41-85.41v0
			C1026.94,132.63,988.7,94.39,941.53,94.39z"/>
		<path class="st0" d="M1264.82,208.27c1.72,0,3.11-1.39,3.11-3.11V97.5c0-1.72-1.39-3.11-3.11-3.11h-167.72
			c-31.45,0-56.94,25.49-56.94,56.94c0,27.59,19.62,50.59,45.67,55.82v1.12h-42.56c-1.72,0-3.11,1.39-3.11,3.11v107.67
			c0,1.72,1.39,3.11,3.11,3.11h167.72c31.45,0,56.94-25.49,56.94-56.94c0-27.57-19.6-50.57-45.63-55.81v-1.13H1264.82z"/>
	</g>
	<g>
		<path class="st0" d="M383.95,392.93c10.11,0,15.17,5.84,15.17,12.88c0,5.12-2.83,10.29-9.57,12.1l10.05,17.04h-9.75l-9.27-16.37
			h-3.97v16.37h-8.43v-42.02H383.95z M383.65,399.91h-7.04v12.34h7.04c4.7,0,6.8-2.47,6.8-6.26
			C390.45,402.26,388.34,399.91,383.65,399.91z"/>
		<path class="st0" d="M437.16,399.73H421.2v10.53h14.15v6.68H421.2v11.14h15.95v6.86h-24.38v-42.08h24.38V399.73z"/>
		<path class="st0" d="M470.08,392.39c9.33,0,16.92,5,19.74,13.6h-9.69c-1.99-4.03-5.6-6.02-10.11-6.02
			c-7.34,0-12.58,5.36-12.58,13.91c0,8.49,5.24,13.91,12.58,13.91c4.51,0,8.13-1.99,10.11-6.08h9.69
			c-2.83,8.67-10.41,13.6-19.74,13.6c-12.1,0-21.31-8.85-21.31-21.43C448.77,401.3,457.98,392.39,470.08,392.39z"/>
		<path class="st0" d="M499.57,392.93h9.51l9.03,19.2l8.97-19.2h9.39l-14.21,27.39v14.63h-8.43v-14.63L499.57,392.93z"/>
		<path class="st0" d="M566.62,392.39c9.33,0,16.92,5,19.74,13.6h-9.69c-1.99-4.03-5.6-6.02-10.11-6.02
			c-7.34,0-12.58,5.36-12.58,13.91c0,8.49,5.24,13.91,12.58,13.91c4.51,0,8.13-1.99,10.11-6.08h9.69
			c-2.83,8.67-10.41,13.6-19.74,13.6c-12.1,0-21.31-8.85-21.31-21.43C545.31,401.3,554.52,392.39,566.62,392.39z"/>
		<path class="st0" d="M608.03,392.93v35.33h13.84v6.68H599.6v-42.02H608.03z"/>
		<path class="st0" d="M633.24,392.93h8.43v42.02h-8.43V392.93z"/>
		<path class="st0" d="M691.93,392.87v42.08h-8.43l-19.08-28.83v28.83H656v-42.08h8.43l19.08,28.89v-28.89H691.93z"/>
		<path class="st0" d="M745.2,405.57h-9.69c-1.93-3.55-5.42-5.42-9.87-5.42c-7.52,0-12.76,5.36-12.76,13.73
			c0,8.55,5.3,13.84,13.12,13.84c6.5,0,10.65-3.73,11.92-9.69h-14.45v-6.44h22.75v7.34c-1.69,8.55-9.33,16.37-20.53,16.37
			c-12.22,0-21.49-8.85-21.49-21.43c0-12.58,9.27-21.49,21.43-21.49C735.03,392.39,742.49,397.14,745.2,405.57z"/>
		<path class="st0" d="M778.84,392.93h8.43v42.02h-8.43V392.93z"/>
		<path class="st0" d="M838.43,414c0,12.7-8.73,20.95-22.15,20.95h-14.69v-42.02h14.69C829.7,392.93,838.43,401.24,838.43,414z
			 M815.98,427.78c8.85,0,13.84-5.06,13.84-13.79s-5-13.97-13.84-13.97h-5.96v27.75H815.98z"/>
		<path class="st0" d="M875.14,399.73h-15.95v10.53h14.15v6.68h-14.15v11.14h15.95v6.86h-24.38v-42.08h24.38V399.73z"/>
		<path class="st0" d="M914.56,426.94h-16.73l-2.77,8.01h-8.85l15.11-42.08h9.81l15.11,42.08h-8.91L914.56,426.94z M906.2,402.62
			l-6.08,17.58h12.16L906.2,402.62z"/>
		<path class="st0" d="M952.42,435.37c-8.73,0-15.47-4.57-15.59-12.52h9.03c0.24,3.37,2.47,5.6,6.38,5.6c3.97,0,6.32-2.11,6.32-5.12
			c0-9.09-21.67-3.61-21.61-18.84c0-7.58,6.14-12.16,14.81-12.16c8.61,0,14.51,4.39,15.05,11.98h-9.27c-0.18-2.77-2.41-4.94-6.02-5
			c-3.31-0.12-5.78,1.5-5.78,4.94c0,8.43,21.55,3.73,21.55,18.54C967.29,429.41,961.99,435.37,952.42,435.37z"/>
	</g>
</g>
</svg>
